inDegrees=yes
name=ik_S47_A05_T02
DataType=double
version=3
OpenSimVersion=4.3-2021-08-27-4bc7ad9
endheader
time	pelvis_tilt	pelvis_list	pelvis_rotation	pelvis_tx	pelvis_ty	pelvis_tz	hip_flexion_r	hip_adduction_r	hip_rotation_r	knee_angle_r	knee_angle_r_beta	ankle_angle_r	subtalar_angle_r	mtp_angle_r	hip_flexion_l	hip_adduction_l	hip_rotation_l	knee_angle_l	knee_angle_l_beta	ankle_angle_l	subtalar_angle_l	mtp_angle_l	lumbar_extension	lumbar_bending	lumbar_rotation	arm_flex_r	arm_add_r	arm_rot_r	elbow_flex_r	pro_sup_r	wrist_flex_r	wrist_dev_r	arm_flex_l	arm_add_l	arm_rot_l	elbow_flex_l	pro_sup_l	wrist_flex_l	wrist_dev_l
8.059999999999917	-14.1021067745998	-6.765316569327353	29.56999640296452	0	0.9399999999999999	0	42.02238712215822	-11.04557400890396	-10.65339563195186	54.11242828662783	0.9444400398509694	0	0	0	42.02238712215822	-11.04557400890396	-10.65339563195186	54.11242828662783	0.9444400398509694	0	0	0	-13.23267536790194	-5.198173780452329	2.174234753006133	94.17842505859281	16.55629820316561	25.70801310569623	18.67814186365366	75.97159647118355	0	0	48.2018063629737	3.393180242234436	21.0357718666053	28.98424921649746	110.7103359122376	0	0
8.079999999999917	-14.1064275245304	-6.878361094334314	29.93147422236278	0	0.9399999999999999	0	42.02384702726706	-11.04378135170863	-10.65267787275734	54.11271867639059	0.9444451081084436	0	0	0	42.02384702726706	-11.04378135170863	-10.65267787275734	54.11271867639059	0.9444451081084436	0	0	0	-13.29457572068076	-5.285863677871159	2.146474787904867	94.11956837669993	17.54064999929116	26.6346376925182	17.95442377114739	75.23152477823604	0	0	48.31019600866082	3.527113756831044	21.50113311299905	28.8688829295575	110.6320464774289	0	0
8.099999999999916	-14.12601788232081	-6.979590424954734	30.14675466573542	0	0.9399999999999999	0	42.02497176846091	-11.0424057530762	-10.6521262643799	54.11294307036258	0.9444490245220767	0	0	0	42.02497176846091	-11.0424057530762	-10.6521262643799	54.11294307036258	0.9444490245220767	0	0	0	-13.35273447530073	-5.38718152130124	2.224210937873026	94.1342669562909	17.43325955005382	26.53779099878339	17.90732202163743	75.27315744515219	0	0	48.45847878282537	3.654087371888976	21.9315895462619	28.72900097065849	110.5555619813464	0	0
8.119999999999916	-14.16785460865963	-7.092247118634702	30.45442081413904	0	0.9399999999999999	0	42.02642558889868	-11.04062453291708	-10.65141229080008	54.11323234994149	0.9444540734031873	0	0	0	42.02642558889868	-11.04062453291708	-10.65141229080008	54.11323234994149	0.9444540734031873	0	0	0	-13.45042981130217	-5.448820358879805	2.184267056463276	94.10247282590134	18.3963214030004	27.39177471123615	17.06536815376483	74.76141876952867	0	0	48.66568322687075	3.775837667239654	22.31858155602806	28.59990546349095	110.4749795511118	0	0
8.139999999999915	-14.20414712463229	-7.185241436335541	30.73620779905431	0	0.9399999999999999	0	42.02787979858953	-11.03884498131896	-10.65069855020954	54.11352174979007	0.9444591243833997	0	0	0	42.02787979858953	-11.03884498131896	-10.65069855020954	54.11352174979007	0.9444591243833997	0	0	0	-13.5338201028033	-5.495859873453156	2.1456649754193	94.02564450402218	19.31719523916992	28.18278344652938	16.2128245415032	74.42395010535107	0	0	48.80807275809889	3.881709146012181	22.66205694059698	28.49055885119889	110.4079110263531	0	0
8.159999999999915	-14.22008471495611	-7.224846566577508	30.93635568407078	0	0.9399999999999999	0	42.02904202250348	-11.0374271196631	-10.65012918108465	54.11375351979375	0.9444631695330714	0	0	0	42.02904202250348	-11.0374271196631	-10.65012918108465	54.11375351979375	0.9444631695330714	0	0	0	-13.57773927934111	-5.492003609094124	2.058576375982418	93.83025312815866	20.23050478783913	28.93945757288929	15.55887376385325	74.06599512322988	0	0	48.86541721272667	3.914020567975364	22.98652098716232	28.42161807127255	110.1893973386311	0	0
8.179999999999914	-14.26414301309206	-7.29889860972017	31.19353865146511	0	0.9399999999999999	0	42.03021636780468	-11.03599553772143	-10.64955406750118	54.1139876931259	0.9444672566287378	0	0	0	42.03021636780468	-11.03599553772143	-10.64955406750118	54.1139876931259	0.9444672566287378	0	0	0	-13.65844110195042	-5.517648081571534	2.020615651304608	93.63964117431449	21.02448109084163	29.63009387536619	14.80146347682059	73.71509939577086	0	0	48.96915118871492	3.980403662118766	23.46293603701021	28.36651943828445	109.9573006386651	0	0
8.199999999999914	-14.31992162142572	-7.386306447269043	31.40651083910031	0	0.9399999999999999	0	42.03157050618219	-11.03434598186791	-10.6488910985773	54.11425765587973	0.9444719683676498	0	0	0	42.03157050618219	-11.03434598186791	-10.6488910985773	54.11425765587973	0.9444719683676498	0	0	0	-13.75782440464909	-5.543243950934712	1.968770552936212	93.47075360095162	21.72580514461484	30.31424367222583	14.06773007760822	73.38123453275965	0	0	49.09936576008208	3.963337140818618	23.90131585285982	28.3518769561906	109.7485001564066	0	0
8.219999999999914	-14.3560799508066	-7.451537398836429	31.59389764019942	0	0.9399999999999999	0	42.03285980232448	-11.03277793284778	-10.64826042955555	54.11451485159947	0.9444764572797814	0	0	0	42.03285980232448	-11.03277793284778	-10.64826042955555	54.11451485159947	0.9444764572797814	0	0	0	-13.82891977648429	-5.560196180441444	1.915969293977813	93.18024044681178	22.35062004792323	30.98199719376542	13.46514733860954	73.14277124736273	0	0	49.19036997378497	3.968718690296554	24.27014433613154	28.31733162038794	109.6048710595591	0	0
8.239999999999913	-14.40409586795793	-7.517778379381451	31.73035086746391	0	0.9399999999999999	0	42.03430485366911	-11.0310196902485	-10.64755323762154	54.11480273623888	0.944481481814605	0	0	0	42.03430485366911	-11.0310196902485	-10.64755323762154	54.11480273623888	0.944481481814605	0	0	0	-13.911979026691	-5.569593757116897	1.861277520669014	92.88567886097489	22.93841097928139	31.61284232203431	12.86140126841699	72.96320913744768	0	0	49.32800622912082	3.996365495855247	24.38705402329056	28.2511011004562	109.6916489803089	0	0
8.259999999999913	-14.50029890814312	-7.63632498815521	31.83278973081351	0	0.9399999999999999	0	42.03554408399406	-11.0295176627099	-10.64694819753026	54.11505028975981	0.9444858024386201	0	0	0	42.03554408399406	-11.0295176627099	-10.64694819753026	54.11505028975981	0.9444858024386201	0	0	0	-14.06650714774943	-5.589871013523075	1.787062704493858	92.77061437030117	23.51219010769901	32.08333881126525	12.25266267422694	73.05617296227902	0	0	49.5761062451879	3.932142021758304	24.71652459414532	28.2560445743262	109.5530055744035	0	0
8.279999999999912	-14.5163001371262	-7.658630292370874	31.99803117816452	0	0.9399999999999999	0	42.03664903028526	-11.02818210580254	-10.64640961716187	54.11527141405032	0.9444896617855457	0	0	0	42.03664903028526	-11.02818210580254	-10.64640961716187	54.11527141405032	0.9444896617855457	0	0	0	-14.11145457713553	-5.544324477789412	1.624587435793691	92.01640951501788	24.47740472320519	33.23444378698451	11.16989431122697	73.433491992085	0	0	49.59366998526729	3.877535145658995	24.94866130682834	28.25646823939154	109.4161144972289	0	0
8.299999999999912	-14.51211511023058	-7.665463346106717	32.06795601073825	0	0.9399999999999999	0	42.03800444757319	-11.02655210531264	-10.64575109000457	54.11554381735364	0.9444944161200819	0	0	0	42.03800444757319	-11.02655210531264	-10.64575109000457	54.11554381735364	0.9444944161200819	0	0	0	-14.11979625979896	-5.527128835377535	1.555026275588253	91.68125869960483	24.77228099515911	33.75391868924631	11.07638114122302	73.06629576124175	0	0	49.56035544613245	3.814924548028212	25.22178973724855	28.30583890806046	109.2521237022692	0	0
8.319999999999911	-14.5533664291589	-7.702838417943905	32.08151261476229	0	0.9399999999999999	0	42.03885242653195	-11.02554657488272	-10.64534286710802	54.11571641181219	0.9444974284616544	0	0	0	42.03885242653195	-11.02554657488272	-10.64534286710802	54.11571641181219	0.9444974284616544	0	0	0	-14.17689861864909	-5.526428971188439	1.53501774921226	91.41478243837427	25.11269564128973	34.24992529976922	10.52633194409009	73.4476639748983	0	0	49.50515111253658	3.688616132523161	25.73706801619367	28.43256537936734	108.9254609095853	0	0
